<?xml version="1.0" encoding="utf-8"?>
<!-- Generator: Adobe Illustrator 19.0.0, SVG Export Plug-In . SVG Version: 6.00 Build 0)  -->
<svg version="1.1" id="ElbitLogoType" xmlns="http://www.w3.org/2000/svg" xmlns:xlink="http://www.w3.org/1999/xlink" x="0px"
	 y="0px" viewBox="694 -104 2000 1000" style="enable-background:new 694 -104 2000 1000;" xml:space="preserve">
<g id="ElbitLogo">
	<polygon id="ElbitLogo-bit" points="1461.9,688.7 1157.2,871.5 852.4,688.7 852.4,414.4 852.4,103.3 1157.2,-79.5 1461.9,103.3 
		1461.9,414.4 	"/>
	<path id="ElbitLogo-border" d="M1157.2,896L831.5,700.6V91.4L1157.2-104l325.7,195.4v609.1L1157.2,896z M873.4,676.8l283.8,170.3
		L1441,676.8V115.2L1157.2-55.1L873.4,115.2V676.8z"/>
	<g id="ElbitLogo-mustache">
		<path id="ElbitLogo-mustache-left" d="M1177.4,460c-17.7-87.6-112.8-100-204.4-28.1c-138.7,109-216.8,132.3-279,27.9
			c0,0,25.8,168.4,186.3,173.9C988.7,637.5,1199.8,571,1177.4,460z"/>
		<path id="ElbitLogo-mustache-right" d="M1139,461c13.2-88.3,107.6-105.6,202.7-38.3c144,101.8,223.2,121.2,280.1,13.8
			c0,0-17.3,169.5-177.3,183.1C1336.4,628.7,1122.2,573,1139,461z"/>
	</g>
</g>
<g id="ElbitType">
	<g id="ElbitType-el">
		<path id="ElbitType-e_1_" d="M1988.1,516.4h-193.8c0.4,22.8,7.6,42.5,21.7,59.2s32.4,25,54.8,25c17.7,0,32.3-4.1,43.7-12.2
			c11.4-8.1,22.2-20.5,32.3-37.2l41.3,23.3c-11.9,21.7-28.3,38.7-49.1,51c-20.8,12.3-43.7,18.5-68.7,18.5c-38,0-68.3-12.7-90.9-38
			s-33.9-57.2-33.9-95.6c0-40.5,10.7-73.5,32-98.8c21.4-25.3,51.9-38,91.8-38c38.7,0,68.2,12.6,88.5,37.7
			c20.3,25.2,30.4,57.7,30.4,97.5v7.6H1988.1z M1797,479.5h142.3c-2.9-19.5-10.5-35-22.8-46.4s-28.1-17.1-47.2-17.1
			c-18.8,0-34.8,6-48.1,17.9C1807.9,445.8,1799.9,461,1797,479.5z"/>
		<path id="ElbitType-l_1_" d="M2081,164v471.3h-48.9V164H2081z"/>
	</g>
	<g id="ElbitType-bit">
		<path id="ElbitTypeb" d="M2146.7,635.3V164h48.9v259.5h1.1c22.1-33.3,51.6-50,88.5-50c35.5,0,64.3,13.1,86.3,39.4
			c22.1,26.3,33.1,57.5,33.1,93.7c0,38.4-10.9,70.9-32.6,97.5s-51.4,39.9-89,39.9c-17.4,0-33.6-4.3-48.6-13s-27.6-20.4-37.7-35.3
			h-1.1v39.6L2146.7,635.3L2146.7,635.3z M2273.2,600.6c25.7,0,45.9-8.9,60.5-26.6c14.7-17.7,22-39.6,22-65.7
			c0-25.7-7.4-47.3-22.3-64.9c-14.8-17.6-34.9-26.3-60.3-26.3c-24.3,0-43.7,9-58.4,26.9c-14.7,17.9-22,39.4-22,64.3
			c0,25.3,7.2,47.1,21.7,65.2C2229,591.5,2248.6,600.6,2273.2,600.6z"/>
		<path id="ElbitType-i" d="M2463.8,240.8c6.5-6.7,14.5-10,23.9-10c9.4,0,17.4,3.3,23.9,10s9.8,14.8,9.8,24.2
			c0,9.1-3.3,16.8-9.8,23.3s-14.5,9.8-23.9,9.8c-9.4,0-17.4-3.3-23.9-9.8S2454,274,2454,265C2454,255.6,2457.3,247.5,2463.8,240.8z
			 M2512.1,381.2v254.1h-48.9V381.2H2512.1z"/>
		<path id="ElbitType-t" d="M2646.2,426.8v208.5h-48.9V426.8h-26.6v-45.6h26.6V284h48.9v97.2h47.8v45.6H2646.2z"/>
	</g>
</g>
</svg>
