<?xml version="1.0" encoding="UTF-8" standalone="no"?>
<!-- Generator: Adobe Illustrator 19.0.0, SVG Export Plug-In . SVG Version: 6.00 Build 0)  -->

<svg
   xmlns:dc="http://purl.org/dc/elements/1.1/"
   xmlns:cc="http://creativecommons.org/ns#"
   xmlns:rdf="http://www.w3.org/1999/02/22-rdf-syntax-ns#"
   xmlns:svg="http://www.w3.org/2000/svg"
   xmlns="http://www.w3.org/2000/svg"
   xmlns:sodipodi="http://sodipodi.sourceforge.net/DTD/sodipodi-0.dtd"
   xmlns:inkscape="http://www.inkscape.org/namespaces/inkscape"
   version="1.1"
   id="ElbitLogoType"
   x="0px"
   y="0px"
   viewBox="694 -104 1000 1000"
   xml:space="preserve"
   inkscape:version="0.91 r13725"
   sodipodi:docname="ElbitLogo--icon.svg"
   width="1000"
   height="1000"><metadata
     id="metadata3395"><rdf:RDF><cc:Work
         rdf:about=""><dc:format>image/svg+xml</dc:format><dc:type
           rdf:resource="http://purl.org/dc/dcmitype/StillImage" /><dc:title></dc:title></cc:Work></rdf:RDF></metadata><defs
     id="defs3393" /><sodipodi:namedview
     pagecolor="#ffffff"
     bordercolor="#666666"
     borderopacity="1"
     objecttolerance="10"
     gridtolerance="10"
     guidetolerance="10"
     inkscape:pageopacity="0"
     inkscape:pageshadow="2"
     inkscape:window-width="1309"
     inkscape:window-height="744"
     id="namedview3391"
     showgrid="false"
     showguides="false"
     inkscape:guide-bbox="true"
     fit-margin-top="0"
     fit-margin-left="0"
     fit-margin-right="0"
     fit-margin-bottom="0"
     inkscape:zoom="0.5715"
     inkscape:cx="604.9447"
     inkscape:cy="500"
     inkscape:window-x="57"
     inkscape:window-y="24"
     inkscape:window-maximized="1"
     inkscape:current-layer="ElbitLogoType"><sodipodi:guide
       position="845.14436,806.64917"
       orientation="0,1"
       id="guide3401" /><sodipodi:guide
       position="664.91689,195.9755"
       orientation="0,1"
       id="guide3403" /><sodipodi:guide
       position="929.13386,603.67454"
       orientation="1,0"
       id="guide3409" /></sodipodi:namedview><path
     inkscape:connector-curvature="0"
     d="M 1194,896 868.3,700.6 868.3,91.4 1194,-104 l 325.7,195.4 0,609.1 L 1194,896 Z M 910.2,676.8 1194,847.1 l 283.8,-170.3 0,-561.6 -283.8,-170.3 -283.8,170.3 0,561.6 z"
     id="ElbitLogo-border" /><g
     id="ElbitLogo-mustache"
     transform="translate(36.1,0)"><path
       inkscape:connector-curvature="0"
       d="M 1177.4,460 C 1159.7,372.4 1064.6,360 973,431.9 c -138.7,109 -216.8,132.3 -279,27.9 0,0 25.8,168.4 186.3,173.9 108.4,3.8 319.5,-62.7 297.1,-173.7 z"
       id="ElbitLogo-mustache-left" /><path
       inkscape:connector-curvature="0"
       d="m 1139,461 c 13.2,-88.3 107.6,-105.6 202.7,-38.3 144,101.8 223.2,121.2 280.1,13.8 0,0 -17.3,169.5 -177.3,183.1 C 1336.4,628.7 1122.2,573 1139,461 Z"
       id="ElbitLogo-mustache-right" /></g></svg>