<?xml version="1.0" encoding="utf-8"?>
<!-- Generator: Adobe Illustrator 19.0.0, SVG Export Plug-In . SVG Version: 6.00 Build 0)  -->
<svg version="1.1" id="ElbitLogoType" xmlns="http://www.w3.org/2000/svg" xmlns:xlink="http://www.w3.org/1999/xlink" x="0px"
	 y="0px" viewBox="0 0 2000 1000" style="enable-background:new 0 0 2000 1000;" xml:space="preserve">
<g id="ElbitLogo">
	<polygon id="ElbitLogo-bit" points="767.9,792.7 463.2,975.5 158.4,792.7 158.4,518.4 158.4,207.3 463.2,24.5 767.9,207.3 
		767.9,518.4 	"/>
	<path id="ElbitLogo-border" d="M463.2,1000L137.5,804.6V195.4L463.2,0l325.7,195.4v609.1L463.2,1000z M179.4,780.8l283.8,170.3
		L747,780.8V219.2L463.2,48.9L179.4,219.2V780.8z"/>
	<g id="ElbitLogo-mustache">
		<path id="ElbitLogo-mustache-left" d="M483.4,564c-17.7-87.6-112.8-100-204.4-28.1C140.3,644.9,62.2,668.2,0,563.8
			c0,0,25.8,168.4,186.3,173.9C294.7,741.5,505.8,675,483.4,564z"/>
		<path id="ElbitLogo-mustache-right" d="M445,565c13.2-88.3,107.6-105.6,202.7-38.3c144,101.8,223.2,121.2,280.1,13.8
			c0,0-17.3,169.5-177.3,183.1C642.4,732.7,428.2,677,445,565z"/>
	</g>
</g>
<g id="ElbitType">
	<g id="ElbitType-el">
		<path id="ElbitType-e_1_" d="M1258.1,620.4h-193.8c0.4,22.8,7.6,42.5,21.7,59.2c14.1,16.7,32.4,25,54.8,25
			c17.7,0,32.3-4.1,43.7-12.2c11.4-8.1,22.2-20.5,32.3-37.2l41.3,23.3c-11.9,21.7-28.3,38.7-49.1,51c-20.8,12.3-43.7,18.5-68.7,18.5
			c-38,0-68.3-12.7-90.9-38c-22.6-25.3-33.9-57.2-33.9-95.6c0-40.5,10.7-73.5,32-98.8c21.4-25.3,51.9-38,91.8-38
			c38.7,0,68.2,12.6,88.5,37.7c20.3,25.2,30.4,57.7,30.4,97.5V620.4z M1067,583.5h142.3c-2.9-19.5-10.5-35-22.8-46.4
			c-12.3-11.4-28.1-17.1-47.2-17.1c-18.8,0-34.8,6-48.1,17.9C1077.9,549.8,1069.9,565,1067,583.5z"/>
		<path id="ElbitType-l_1_" d="M1351,268v471.3h-48.9V268H1351z"/>
	</g>
	<g id="ElbitType-bit">
		<path id="ElbitTypeb" d="M1416.7,739.3V268h48.9v259.5h1.1c22.1-33.3,51.6-50,88.5-50c35.5,0,64.3,13.1,86.3,39.4
			c22.1,26.3,33.1,57.5,33.1,93.7c0,38.4-10.9,70.9-32.6,97.5c-21.7,26.6-51.4,39.9-89,39.9c-17.4,0-33.6-4.3-48.6-13
			c-15-8.7-27.6-20.4-37.7-35.3h-1.1v39.6H1416.7z M1543.2,704.6c25.7,0,45.9-8.9,60.5-26.6c14.7-17.7,22-39.6,22-65.7
			c0-25.7-7.4-47.3-22.3-64.9c-14.8-17.6-34.9-26.3-60.3-26.3c-24.3,0-43.7,9-58.4,26.9c-14.7,17.9-22,39.4-22,64.3
			c0,25.3,7.2,47.1,21.7,65.2C1499,695.5,1518.6,704.6,1543.2,704.6z"/>
		<path id="ElbitType-i" d="M1733.8,344.8c6.5-6.7,14.5-10,23.9-10c9.4,0,17.4,3.3,23.9,10c6.5,6.7,9.8,14.8,9.8,24.2
			c0,9.1-3.3,16.8-9.8,23.3c-6.5,6.5-14.5,9.8-23.9,9.8c-9.4,0-17.4-3.3-23.9-9.8c-6.5-6.5-9.8-14.3-9.8-23.3
			C1724,359.6,1727.3,351.5,1733.8,344.8z M1782.1,485.2v254.1h-48.9V485.2H1782.1z"/>
		<path id="ElbitType-t" d="M1916.2,530.8v208.5h-48.9V530.8h-26.6v-45.6h26.6V388h48.9v97.2h47.8v45.6H1916.2z"/>
	</g>
</g>
</svg>
