<?xml version="1.0" standalone="no"?>
<!DOCTYPE svg PUBLIC "-//W3C//DTD SVG 20010904//EN"
 "http://www.w3.org/TR/2001/REC-SVG-20010904/DTD/svg10.dtd">
<svg version="1.0" xmlns="http://www.w3.org/2000/svg"
 width="16.000000pt" height="16.000000pt" viewBox="0 0 16.000000 16.000000"
 preserveAspectRatio="xMidYMid meet">
<metadata>
Created by potrace 1.11, written by Peter Selinger 2001-2013
</metadata>
<g transform="translate(0.000000,16.000000) scale(0.001600,-0.001600)"
fill="#000000" stroke="none">
<path d="M4700 9820 c-162 -99 -302 -183 -311 -187 -8 -5 -187 -111 -397 -238
-210 -126 -390 -234 -400 -240 -10 -5 -370 -221 -800 -480 -430 -258 -802
-481 -825 -495 -24 -14 -84 -49 -134 -79 l-90 -54 0 -2132 c0 -1172 -3 -2136
-6 -2142 -19 -30 -283 -81 -418 -81 -296 -1 -524 117 -764 393 -38 43 -141
188 -159 223 -9 17 -20 33 -25 36 -10 7 -9 3 15 -94 9 -36 17 -72 19 -80 14
-71 97 -293 156 -415 250 -520 613 -865 1079 -1026 52 -18 97 -34 99 -36 2 -1
4 -169 4 -372 0 -364 1 -369 21 -380 12 -6 28 -15 36 -21 38 -25 148 -91 170
-102 14 -7 27 -15 30 -18 3 -3 18 -12 33 -20 15 -8 222 -132 458 -275 237
-143 443 -267 458 -275 28 -16 417 -250 479 -288 20 -12 46 -26 57 -31 11 -5
35 -21 54 -35 19 -14 40 -26 47 -26 7 0 14 -3 16 -7 1 -5 15 -15 31 -23 15 -8
145 -86 290 -173 144 -87 271 -164 282 -170 11 -7 39 -24 62 -40 23 -15 44
-27 46 -27 3 0 87 -49 187 -110 100 -60 185 -110 188 -110 4 0 25 -14 46 -30
22 -17 43 -30 47 -30 5 0 28 -13 52 -30 25 -16 48 -30 51 -30 3 0 31 -16 61
-36 56 -35 56 -35 83 -17 15 10 36 23 47 29 37 21 85 49 616 369 292 176 543
327 558 335 14 8 142 85 283 170 142 85 266 160 276 165 10 6 66 39 125 75 59
36 115 70 125 75 10 6 119 70 242 144 209 125 245 146 325 197 17 10 39 24 50
30 45 24 560 336 571 345 7 6 11 132 12 421 0 227 1 425 1 440 1 21 7 28 34
33 110 24 356 145 499 245 116 81 313 275 405 400 179 242 316 540 393 852 20
81 49 238 45 238 -1 0 -28 -42 -58 -94 -278 -464 -605 -652 -1047 -602 -36 4
-81 12 -100 16 -19 5 -46 11 -60 14 -55 12 -102 25 -107 30 -4 3 -6 928 -6
2055 l0 2048 -224 134 c-123 74 -238 143 -257 154 -19 11 -379 227 -800 480
-421 253 -778 467 -793 476 -16 9 -273 164 -573 344 -546 328 -609 366 -613
364 -1 0 -135 -81 -297 -179z m335 -331 c17 -11 39 -24 50 -30 11 -5 34 -18
50 -28 42 -26 364 -220 400 -241 17 -9 185 -111 375 -225 190 -115 358 -215
373 -224 16 -9 36 -21 45 -26 373 -225 1200 -721 1207 -725 5 -3 76 -45 156
-93 l146 -88 0 -1844 c0 -1015 -2 -1845 -5 -1845 -17 0 -320 168 -432 240 -8
5 -37 23 -65 40 -104 63 -309 200 -490 328 -382 269 -765 411 -1114 413 -58 1
-128 -2 -156 -6 -212 -30 -401 -125 -532 -268 l-50 -55 -67 63 c-169 161 -389
238 -656 230 -58 -1 -134 -8 -170 -14 -36 -7 -74 -14 -85 -16 -41 -7 -193 -53
-260 -80 -201 -80 -379 -185 -615 -364 -298 -226 -353 -267 -490 -362 -137
-96 -330 -220 -431 -277 l-57 -32 1 1924 0 1924 513 309 c282 169 521 313 531
318 10 6 104 62 208 125 105 63 199 120 210 126 11 6 103 61 204 122 101 62
185 112 185 112 1 0 222 133 491 295 270 162 492 294 495 295 3 0 19 -9 35
-21z m34 -5874 c263 -286 765 -542 1361 -696 272 -71 456 -104 776 -143 96
-12 300 -20 460 -19 l171 1 0 -284 0 -283 -1371 -823 c-754 -452 -1380 -828
-1391 -834 -11 -5 -32 -18 -47 -28 -28 -18 -28 -18 -94 23 -36 22 -66 41 -68
41 -2 0 -92 54 -201 120 -109 66 -199 120 -201 120 -1 0 -46 27 -99 60 -53 33
-98 60 -100 60 -2 0 -47 27 -100 60 -53 33 -97 60 -99 60 -1 0 -114 68 -251
150 -137 83 -251 150 -253 150 -3 0 -13 6 -21 14 -9 7 -36 25 -61 38 -25 14
-256 153 -515 308 -258 156 -479 288 -490 294 -11 6 -86 51 -167 100 l-146 89
1 214 2 215 200 4 c110 2 214 5 230 7 17 3 62 7 100 11 264 26 654 109 940
199 134 43 283 96 315 112 16 8 33 16 37 16 28 4 243 102 353 161 52 28 105
56 117 62 13 6 23 14 23 19 0 4 5 7 10 7 15 0 173 108 260 177 84 67 195 174
235 228 15 19 31 35 35 35 4 0 26 -20 49 -45z"/>
</g>
</svg>
